<svg xmlns="http://www.w3.org/2000/svg" width="800" height="450" viewBox="0 0 800 450">
  <defs>
    <linearGradient id="bg" x1="0" y1="0" x2="800" y2="450" gradientUnits="userSpaceOnUse">
      <stop offset="0%" stop-color="#18181b"/>
      <stop offset="100%" stop-color="#1f1f23"/>
    </linearGradient>
  </defs>
  <rect width="800" height="450" fill="url(#bg)"/>
  <!-- 5 Color bars (palette style) -->
  <rect x="100" y="60" width="120" height="280" rx="10" fill="#ef4444" opacity="0.85"/>
  <rect x="230" y="60" width="120" height="280" rx="10" fill="#f59e0b" opacity="0.85"/>
  <rect x="360" y="60" width="120" height="280" rx="10" fill="#22c55e" opacity="0.85"/>
  <rect x="490" y="60" width="120" height="280" rx="10" fill="#3b82f6" opacity="0.85"/>
  <rect x="620" y="60" width="120" height="280" rx="10" fill="#a855f7" opacity="0.85"/>
  <!-- Color codes -->
  <text x="160" y="380" text-anchor="middle" font-family="monospace" font-size="13" fill="#a1a1aa" opacity="0.7">#EF4444</text>
  <text x="290" y="380" text-anchor="middle" font-family="monospace" font-size="13" fill="#a1a1aa" opacity="0.7">#F59E0B</text>
  <text x="420" y="380" text-anchor="middle" font-family="monospace" font-size="13" fill="#a1a1aa" opacity="0.7">#22C55E</text>
  <text x="550" y="380" text-anchor="middle" font-family="monospace" font-size="13" fill="#a1a1aa" opacity="0.7">#3B82F6</text>
  <text x="680" y="380" text-anchor="middle" font-family="monospace" font-size="13" fill="#a1a1aa" opacity="0.7">#A855F7</text>
  <!-- Lock icons on first and third bar -->
  <circle cx="160" cy="200" r="16" fill="rgba(0,0,0,0.3)"/>
  <rect x="152" y="200" width="16" height="12" rx="2" fill="#fafafa" opacity="0.7"/>
  <path d="M156 200v-4a4 4 0 018 0v4" fill="none" stroke="#fafafa" stroke-width="1.5" opacity="0.7"/>
  <circle cx="420" cy="200" r="16" fill="rgba(0,0,0,0.3)"/>
  <rect x="412" y="200" width="16" height="12" rx="2" fill="#fafafa" opacity="0.7"/>
  <path d="M416 200v-4a4 4 0 018 0v4" fill="none" stroke="#fafafa" stroke-width="1.5" opacity="0.7"/>
  <!-- Decorative glow -->
  <circle cx="160" cy="170" r="60" fill="#ef4444" opacity="0.04"/>
  <circle cx="550" cy="170" r="60" fill="#3b82f6" opacity="0.04"/>
</svg>
