<svg xmlns="http://www.w3.org/2000/svg" width="800" height="450" viewBox="0 0 800 450">
  <defs>
    <linearGradient id="bg" x1="0" y1="0" x2="800" y2="450" gradientUnits="userSpaceOnUse">
      <stop offset="0%" stop-color="#1c1917"/>
      <stop offset="100%" stop-color="#292524"/>
    </linearGradient>
    <linearGradient id="shield" x1="0" y1="0" x2="0" y2="1">
      <stop offset="0%" stop-color="#dc2626"/>
      <stop offset="100%" stop-color="#991b1b"/>
    </linearGradient>
  </defs>
  <rect width="800" height="450" fill="url(#bg)"/>
  <!-- Decorative circles -->
  <circle cx="680" cy="80" r="100" fill="#dc2626" opacity="0.04"/>
  <circle cx="120" cy="380" r="80" fill="#ef4444" opacity="0.03"/>
  <!-- Shield shape -->
  <path d="M400 80 L480 120 L480 220 Q480 300 400 340 Q320 300 320 220 L320 120 Z" fill="url(#shield)" opacity="0.15" stroke="#ef4444" stroke-width="2" opacity="0.3"/>
  <path d="M400 110 L460 140 L460 215 Q460 280 400 310 Q340 280 340 215 L340 140 Z" fill="url(#shield)" opacity="0.08"/>
  <!-- Lock icon inside shield -->
  <rect x="383" y="200" width="34" height="28" rx="4" fill="#ef4444" opacity="0.4"/>
  <path d="M390 200v-12a10 10 0 0120 0v12" fill="none" stroke="#ef4444" stroke-width="2.5" opacity="0.4"/>
  <circle cx="400" cy="214" r="4" fill="#fca5a5" opacity="0.6"/>
  <!-- Password display -->
  <rect x="200" y="370" width="400" height="40" rx="8" fill="#ef4444" opacity="0.06" stroke="#ef4444" stroke-width="1" stroke-opacity="0.15"/>
  <text x="260" y="396" font-family="monospace" font-size="18" fill="#fca5a5" opacity="0.5" letter-spacing="3">"""""""""""</text>
  <!-- Strength bar -->
  <rect x="200" y="420" width="400" height="4" rx="2" fill="#3f3f46" opacity="0.3"/>
  <rect x="200" y="420" width="320" height="4" rx="2" fill="#22c55e" opacity="0.4"/>
  <!-- Decorative key particles -->
  <circle cx="250" cy="150" r="3" fill="#ef4444" opacity="0.15"/>
  <circle cx="550" cy="120" r="2" fill="#ef4444" opacity="0.12"/>
  <circle cx="300" cy="100" r="2" fill="#fca5a5" opacity="0.1"/>
  <circle cx="500" cy="160" r="3" fill="#fca5a5" opacity="0.08"/>
  <circle cx="580" cy="260" r="2" fill="#ef4444" opacity="0.1"/>
  <circle cx="220" cy="280" r="2" fill="#ef4444" opacity="0.1"/>
</svg>
