<svg xmlns="http://www.w3.org/2000/svg" width="800" height="450" viewBox="0 0 800 450">
  <defs>
    <linearGradient id="bg" x1="0" y1="0" x2="800" y2="450" gradientUnits="userSpaceOnUse">
      <stop offset="0%" stop-color="#1e1b4b"/>
      <stop offset="100%" stop-color="#312e81"/>
    </linearGradient>
  </defs>
  <rect width="800" height="450" fill="url(#bg)"/>
  <!-- Decorative circles -->
  <circle cx="700" cy="60" r="80" fill="#6366f1" opacity="0.07"/>
  <circle cx="90" cy="400" r="100" fill="#818cf8" opacity="0.05"/>
  <!-- Browser window -->
  <rect x="140" y="65" width="520" height="320" rx="12" fill="#18181b" stroke="#3f3f46" stroke-width="1.5"/>
  <rect x="140" y="65" width="520" height="36" rx="12" fill="#27272a"/>
  <rect x="140" y="89" width="520" height="12" fill="#27272a"/>
  <circle cx="164" cy="83" r="5" fill="#ef4444" opacity="0.8"/>
  <circle cx="182" cy="83" r="5" fill="#eab308" opacity="0.8"/>
  <circle cx="200" cy="83" r="5" fill="#22c55e" opacity="0.8"/>
  <!-- URL bar -->
  <rect x="240" y="74" width="200" height="18" rx="4" fill="#3f3f46" opacity="0.5"/>
  <!-- Code lines -->
  <rect x="170" y="125" width="90" height="6" rx="3" fill="#818cf8" opacity="0.5"/>
  <rect x="170" y="145" width="170" height="6" rx="3" fill="#a78bfa" opacity="0.35"/>
  <rect x="190" y="165" width="130" height="6" rx="3" fill="#6366f1" opacity="0.45"/>
  <rect x="190" y="185" width="200" height="6" rx="3" fill="#818cf8" opacity="0.3"/>
  <rect x="170" y="205" width="70" height="6" rx="3" fill="#a78bfa" opacity="0.45"/>
  <rect x="170" y="235" width="150" height="6" rx="3" fill="#818cf8" opacity="0.35"/>
  <rect x="190" y="255" width="180" height="6" rx="3" fill="#6366f1" opacity="0.4"/>
  <rect x="190" y="275" width="110" height="6" rx="3" fill="#a78bfa" opacity="0.3"/>
  <rect x="170" y="295" width="90" height="6" rx="3" fill="#818cf8" opacity="0.45"/>
  <rect x="170" y="315" width="220" height="6" rx="3" fill="#6366f1" opacity="0.25"/>
  <rect x="170" y="345" width="60" height="6" rx="3" fill="#a78bfa" opacity="0.4"/>
  <!-- Side panel -->
  <rect x="470" y="115" width="170" height="250" rx="8" fill="#4f46e5" opacity="0.06" stroke="#4f46e5" stroke-width="1" opacity="0.1"/>
  <rect x="490" y="140" width="100" height="6" rx="3" fill="#818cf8" opacity="0.2"/>
  <rect x="490" y="160" width="80" height="6" rx="3" fill="#818cf8" opacity="0.15"/>
  <rect x="490" y="180" width="110" height="6" rx="3" fill="#818cf8" opacity="0.2"/>
  <rect x="490" y="200" width="70" height="6" rx="3" fill="#818cf8" opacity="0.15"/>
  <rect x="490" y="230" width="120" height="40" rx="6" fill="#6366f1" opacity="0.1"/>
  <rect x="490" y="285" width="120" height="40" rx="6" fill="#6366f1" opacity="0.08"/>
</svg>
