<svg xmlns="http://www.w3.org/2000/svg" width="800" height="450" viewBox="0 0 800 450">
  <defs>
    <linearGradient id="bg" x1="0" y1="0" x2="800" y2="450" gradientUnits="userSpaceOnUse">
      <stop offset="0%" stop-color="#042f2e"/>
      <stop offset="100%" stop-color="#134e4a"/>
    </linearGradient>
  </defs>
  <rect width="800" height="450" fill="url(#bg)"/>
  <!-- Decorative circles -->
  <circle cx="720" cy="70" r="80" fill="#14b8a6" opacity="0.06"/>
  <circle cx="80" cy="400" r="90" fill="#2dd4bf" opacity="0.04"/>
  <!-- Database cylinder -->
  <ellipse cx="400" cy="130" rx="100" ry="25" fill="#14b8a6" opacity="0.12" stroke="#2dd4bf" stroke-width="1.5" opacity="0.3"/>
  <rect x="300" y="130" width="200" height="70" fill="#14b8a6" opacity="0.06"/>
  <line x1="300" y1="130" x2="300" y2="200" stroke="#2dd4bf" stroke-width="1.5" opacity="0.3"/>
  <line x1="500" y1="130" x2="500" y2="200" stroke="#2dd4bf" stroke-width="1.5" opacity="0.3"/>
  <ellipse cx="400" cy="165" rx="100" ry="25" fill="none" stroke="#2dd4bf" stroke-width="1" opacity="0.15"/>
  <ellipse cx="400" cy="200" rx="100" ry="25" fill="#14b8a6" opacity="0.08" stroke="#2dd4bf" stroke-width="1.5" opacity="0.3"/>
  <!-- Arrow down -->
  <line x1="400" y1="230" x2="400" y2="270" stroke="#2dd4bf" stroke-width="2" opacity="0.3"/>
  <polyline points="390,260 400,275 410,260" fill="none" stroke="#2dd4bf" stroke-width="2" opacity="0.3"/>
  <!-- Data table -->
  <rect x="200" y="280" width="400" height="120" rx="8" fill="#14b8a6" opacity="0.05" stroke="#14b8a6" stroke-width="1" stroke-opacity="0.15"/>
  <!-- Table header -->
  <rect x="200" y="280" width="400" height="28" rx="8" fill="#14b8a6" opacity="0.08"/>
  <rect x="200" y="300" width="400" height="8" fill="#14b8a6" opacity="0.08"/>
  <!-- Header text placeholders -->
  <rect x="220" y="288" width="60" height="6" rx="3" fill="#2dd4bf" opacity="0.3"/>
  <rect x="340" y="288" width="50" height="6" rx="3" fill="#2dd4bf" opacity="0.3"/>
  <rect x="460" y="288" width="70" height="6" rx="3" fill="#2dd4bf" opacity="0.3"/>
  <!-- Table rows -->
  <line x1="200" y1="330" x2="600" y2="330" stroke="#14b8a6" stroke-width="1" opacity="0.1"/>
  <line x1="200" y1="360" x2="600" y2="360" stroke="#14b8a6" stroke-width="1" opacity="0.08"/>
  <line x1="330" y1="308" x2="330" y2="400" stroke="#14b8a6" stroke-width="1" opacity="0.08"/>
  <line x1="450" y1="308" x2="450" y2="400" stroke="#14b8a6" stroke-width="1" opacity="0.08"/>
  <!-- Row data -->
  <rect x="220" y="318" width="80" height="5" rx="2.5" fill="#2dd4bf" opacity="0.15"/>
  <rect x="345" y="318" width="60" height="5" rx="2.5" fill="#2dd4bf" opacity="0.12"/>
  <rect x="465" y="318" width="90" height="5" rx="2.5" fill="#2dd4bf" opacity="0.12"/>
  <rect x="220" y="345" width="70" height="5" rx="2.5" fill="#2dd4bf" opacity="0.12"/>
  <rect x="345" y="345" width="50" height="5" rx="2.5" fill="#2dd4bf" opacity="0.1"/>
  <rect x="465" y="345" width="80" height="5" rx="2.5" fill="#2dd4bf" opacity="0.1"/>
  <rect x="220" y="372" width="90" height="5" rx="2.5" fill="#2dd4bf" opacity="0.1"/>
  <rect x="345" y="372" width="45" height="5" rx="2.5" fill="#2dd4bf" opacity="0.08"/>
  <rect x="465" y="372" width="70" height="5" rx="2.5" fill="#2dd4bf" opacity="0.08"/>
</svg>
